<mxfile host="app.diagrams.net" modified="2021-01-14T02:08:08.156Z" agent="5.0 (Macintosh; Intel Mac OS X 10_15_7) AppleWebKit/605.1.15 (KHTML, like Gecko) Version/14.0.2 Safari/605.1.15" etag="xdbK6fbvO5x3m6IRyDgs" version="14.2.2" type="github">
  <diagram id="_KB4uaqU4iEbdOXhJTjG" name="Page-1">
    <mxGraphModel dx="1127" dy="978" grid="0" gridSize="10" guides="1" tooltips="1" connect="1" arrows="1" fold="1" page="1" pageScale="1" pageWidth="827" pageHeight="1169" math="0" shadow="0">
      <root>
        <mxCell id="0" />
        <mxCell id="1" parent="0" />
        <mxCell id="yr5TdyFtEIAfdWuPYArd-6" value="Tekton" style="swimlane;fontStyle=0;childLayout=stackLayout;horizontal=1;startSize=40;horizontalStack=0;resizeParent=1;resizeParentMax=0;resizeLast=0;collapsible=1;marginBottom=0;align=center;fontSize=12;fillColor=#f8cecc;strokeColor=#b85450;" parent="1" vertex="1">
          <mxGeometry x="350" y="210" width="154" height="497" as="geometry" />
        </mxCell>
        <mxCell id="yr5TdyFtEIAfdWuPYArd-7" value="Trigger" style="text;strokeColor=none;fillColor=none;spacingLeft=4;spacingRight=4;overflow=hidden;rotatable=0;points=[[0,0.5],[1,0.5]];portConstraint=eastwest;fontSize=12;" parent="yr5TdyFtEIAfdWuPYArd-6" vertex="1">
          <mxGeometry y="40" width="154" height="70" as="geometry" />
        </mxCell>
        <mxCell id="yr5TdyFtEIAfdWuPYArd-24" value="" style="curved=1;endArrow=classic;html=1;fontSize=12;exitX=1;exitY=0.088;exitDx=0;exitDy=0;exitPerimeter=0;entryX=0.26;entryY=0;entryDx=0;entryDy=0;entryPerimeter=0;" parent="yr5TdyFtEIAfdWuPYArd-6" target="yr5TdyFtEIAfdWuPYArd-8" edge="1">
          <mxGeometry width="50" height="50" relative="1" as="geometry">
            <mxPoint x="30" y="60.44000000000011" as="sourcePoint" />
            <mxPoint x="197.99800000000005" y="89.53000000000003" as="targetPoint" />
            <Array as="points">
              <mxPoint x="50" y="78" />
              <mxPoint x="50" y="100" />
            </Array>
          </mxGeometry>
        </mxCell>
        <mxCell id="yr5TdyFtEIAfdWuPYArd-8" value="Task:build-and-push&#xa;&#xa;  -Step1: gen-dockerfile&#xa;&#xa;&#xa;&#xa;&#xa;  &#xa;&#xa;-Step2: exec-dockerfile" style="text;strokeColor=none;fillColor=none;spacingLeft=4;spacingRight=4;overflow=hidden;rotatable=0;points=[[0,0.5],[1,0.5]];portConstraint=eastwest;fontSize=12;" parent="yr5TdyFtEIAfdWuPYArd-6" vertex="1">
          <mxGeometry y="110" width="154" height="387" as="geometry" />
        </mxCell>
        <mxCell id="yr5TdyFtEIAfdWuPYArd-10" value="git repository&#xa;(IBM GitHub)" style="swimlane;fontStyle=0;childLayout=stackLayout;horizontal=1;startSize=40;horizontalStack=0;resizeParent=1;resizeParentMax=0;resizeLast=0;collapsible=1;marginBottom=0;align=center;fontSize=12;fillColor=#d5e8d4;strokeColor=#82b366;" parent="1" vertex="1">
          <mxGeometry x="40" y="210" width="160" height="260" as="geometry" />
        </mxCell>
        <mxCell id="yr5TdyFtEIAfdWuPYArd-11" value="dspbasic-com-jmavensample&#xa;-src" style="text;strokeColor=none;fillColor=none;spacingLeft=4;spacingRight=4;overflow=hidden;rotatable=0;points=[[0,0.5],[1,0.5]];portConstraint=eastwest;fontSize=12;" parent="yr5TdyFtEIAfdWuPYArd-10" vertex="1">
          <mxGeometry y="40" width="160" height="34" as="geometry" />
        </mxCell>
        <mxCell id="yr5TdyFtEIAfdWuPYArd-12" value="-pom.xml&#xa;   " style="text;strokeColor=none;fillColor=none;spacingLeft=4;spacingRight=4;overflow=hidden;rotatable=0;points=[[0,0.5],[1,0.5]];portConstraint=eastwest;fontSize=12;" parent="yr5TdyFtEIAfdWuPYArd-10" vertex="1">
          <mxGeometry y="74" width="160" height="76" as="geometry" />
        </mxCell>
        <mxCell id="yr5TdyFtEIAfdWuPYArd-13" value="-settings.xml" style="text;strokeColor=none;fillColor=none;spacingLeft=4;spacingRight=4;overflow=hidden;rotatable=0;points=[[0,0.5],[1,0.5]];portConstraint=eastwest;fontSize=12;" parent="yr5TdyFtEIAfdWuPYArd-10" vertex="1">
          <mxGeometry y="150" width="160" height="110" as="geometry" />
        </mxCell>
        <mxCell id="yr5TdyFtEIAfdWuPYArd-15" value="Nexus3" style="swimlane;fontStyle=0;childLayout=stackLayout;horizontal=1;startSize=40;horizontalStack=0;resizeParent=1;resizeParentMax=0;resizeLast=0;collapsible=1;marginBottom=0;align=center;fontSize=12;fillColor=#008a00;strokeColor=#005700;fontColor=#ffffff;" parent="1" vertex="1">
          <mxGeometry x="650" y="210" width="154" height="180" as="geometry" />
        </mxCell>
        <mxCell id="yr5TdyFtEIAfdWuPYArd-16" value="maven-repository(jar file)" style="text;strokeColor=none;fillColor=none;spacingLeft=4;spacingRight=4;overflow=hidden;rotatable=0;points=[[0,0.5],[1,0.5]];portConstraint=eastwest;fontSize=12;" parent="yr5TdyFtEIAfdWuPYArd-15" vertex="1">
          <mxGeometry y="40" width="154" height="140" as="geometry" />
        </mxCell>
        <mxCell id="yr5TdyFtEIAfdWuPYArd-19" value="ICCR" style="swimlane;fontStyle=0;childLayout=stackLayout;horizontal=1;startSize=40;horizontalStack=0;resizeParent=1;resizeParentMax=0;resizeLast=0;collapsible=1;marginBottom=0;align=center;fontSize=12;fillColor=#1ba1e2;strokeColor=#006EAF;fontColor=#ffffff;" parent="1" vertex="1">
          <mxGeometry x="650" y="440" width="154" height="180" as="geometry" />
        </mxCell>
        <mxCell id="yr5TdyFtEIAfdWuPYArd-20" value="image-repository" style="text;strokeColor=none;fillColor=none;spacingLeft=4;spacingRight=4;overflow=hidden;rotatable=0;points=[[0,0.5],[1,0.5]];portConstraint=eastwest;fontSize=12;" parent="yr5TdyFtEIAfdWuPYArd-19" vertex="1">
          <mxGeometry y="40" width="154" height="140" as="geometry" />
        </mxCell>
        <mxCell id="yr5TdyFtEIAfdWuPYArd-21" value="" style="curved=1;endArrow=classic;html=1;fontSize=12;exitX=1;exitY=0.088;exitDx=0;exitDy=0;exitPerimeter=0;entryX=-0.013;entryY=0.171;entryDx=0;entryDy=0;entryPerimeter=0;" parent="1" source="yr5TdyFtEIAfdWuPYArd-10" target="yr5TdyFtEIAfdWuPYArd-7" edge="1">
          <mxGeometry width="50" height="50" relative="1" as="geometry">
            <mxPoint x="340" y="500" as="sourcePoint" />
            <mxPoint x="390" y="450" as="targetPoint" />
            <Array as="points">
              <mxPoint x="280" y="250" />
              <mxPoint x="270" y="262" />
            </Array>
          </mxGeometry>
        </mxCell>
        <mxCell id="yr5TdyFtEIAfdWuPYArd-23" value="git push" style="text;html=1;strokeColor=none;fillColor=none;align=center;verticalAlign=middle;whiteSpace=wrap;rounded=0;fontSize=12;" parent="1" vertex="1">
          <mxGeometry x="260" y="220" width="60" height="20" as="geometry" />
        </mxCell>
        <mxCell id="yr5TdyFtEIAfdWuPYArd-25" value="" style="curved=1;endArrow=classic;html=1;fontSize=12;entryX=0;entryY=0.071;entryDx=0;entryDy=0;entryPerimeter=0;" parent="1" target="yr5TdyFtEIAfdWuPYArd-20" edge="1">
          <mxGeometry width="50" height="50" relative="1" as="geometry">
            <mxPoint x="490" y="460" as="sourcePoint" />
            <mxPoint x="509.99999999999994" y="480" as="targetPoint" />
            <Array as="points">
              <mxPoint x="580" y="460" />
              <mxPoint x="590" y="460" />
              <mxPoint x="610" y="482" />
            </Array>
          </mxGeometry>
        </mxCell>
        <mxCell id="yr5TdyFtEIAfdWuPYArd-27" value="" style="curved=1;endArrow=classic;html=1;fontSize=12;shadow=1;exitX=0.909;exitY=0.375;exitDx=0;exitDy=0;exitPerimeter=0;" parent="1" source="yr5TdyFtEIAfdWuPYArd-8" edge="1">
          <mxGeometry width="50" height="50" relative="1" as="geometry">
            <mxPoint x="490" y="430" as="sourcePoint" />
            <mxPoint x="650" y="260" as="targetPoint" />
            <Array as="points">
              <mxPoint x="606" y="416" />
              <mxPoint x="600" y="300" />
              <mxPoint x="620" y="270" />
            </Array>
          </mxGeometry>
        </mxCell>
        <mxCell id="yr5TdyFtEIAfdWuPYArd-31" value="maven deploy" style="text;html=1;strokeColor=none;fillColor=none;align=center;verticalAlign=middle;whiteSpace=wrap;rounded=0;fontSize=12;rotation=-75;" parent="1" vertex="1">
          <mxGeometry x="537" y="320" width="60" height="20" as="geometry" />
        </mxCell>
        <mxCell id="yr5TdyFtEIAfdWuPYArd-33" value="docker push" style="text;html=1;strokeColor=none;fillColor=none;align=center;verticalAlign=middle;whiteSpace=wrap;rounded=0;fontSize=12;rotation=30;" parent="1" vertex="1">
          <mxGeometry x="581" y="440" width="60" height="20" as="geometry" />
        </mxCell>
        <mxCell id="yr5TdyFtEIAfdWuPYArd-38" value="jarファイルのデプロイ先を指定&lt;br&gt;(Nexus repositoryのurlなど)" style="rounded=0;whiteSpace=wrap;html=1;fontSize=11;" parent="1" vertex="1">
          <mxGeometry x="60" y="310" width="180" height="40" as="geometry" />
        </mxCell>
        <mxCell id="yr5TdyFtEIAfdWuPYArd-39" value="&lt;strike&gt;Nexusへの接続情報を設定&lt;/strike&gt;&lt;br&gt;&lt;strike&gt;(Username,PWなど)&lt;/strike&gt;&lt;br&gt;&lt;font color=&quot;#cc0000&quot;&gt;Nexusの認証情報はTektonのsecretに記載するように変更し、Settings.xmlには認証情報の環境変数名を記載&lt;/font&gt;" style="rounded=0;whiteSpace=wrap;html=1;fontSize=11;" parent="1" vertex="1">
          <mxGeometry x="60" y="383" width="180" height="84" as="geometry" />
        </mxCell>
        <mxCell id="yr5TdyFtEIAfdWuPYArd-40" value="&lt;font style=&quot;font-size: 10px&quot;&gt;&lt;font color=&quot;#cc0000&quot; style=&quot;font-size: 10px&quot;&gt;-secretからNexusの認証情報を取得&lt;br&gt;&lt;/font&gt;&lt;br&gt;-Step2で利用するdockerfileを作成&lt;/font&gt;" style="rounded=0;whiteSpace=wrap;html=1;fontSize=11;align=left;" parent="1" vertex="1">
          <mxGeometry x="390" y="380" width="140" height="65" as="geometry" />
        </mxCell>
        <mxCell id="yr5TdyFtEIAfdWuPYArd-44" value="&lt;font style=&quot;font-size: 10px&quot;&gt;-ベースイメージを指定&lt;br&gt;&lt;br&gt;&lt;font color=&quot;#cc0000&quot;&gt;-Nexusの認証情報を環境変数として設定&lt;/font&gt;&lt;br&gt;&lt;br&gt;-git sourceからjarファイルを生成(mvn clean package)&lt;br&gt;&lt;br&gt;-setting.xmlをベースーメージへcopy&lt;br&gt;&lt;br&gt;-jarファイルをNexus3へdeploy(mvn deploy)&lt;br&gt;&lt;br&gt;-イメージをICCRへpush&lt;/font&gt;" style="rounded=0;whiteSpace=wrap;html=1;fontSize=11;align=left;" parent="1" vertex="1">
          <mxGeometry x="390" y="476" width="140" height="198" as="geometry" />
        </mxCell>
        <mxCell id="yr5TdyFtEIAfdWuPYArd-47" value="&lt;font style=&quot;font-size: 14px&quot;&gt;1.共通モジュール(java maven)のサンプルCICD Pipelineの構成&lt;/font&gt;" style="text;html=1;strokeColor=none;fillColor=none;align=center;verticalAlign=middle;whiteSpace=wrap;rounded=0;fontSize=11;strokeWidth=2;" parent="1" vertex="1">
          <mxGeometry x="39" y="150" width="462" height="20" as="geometry" />
        </mxCell>
        <mxCell id="yr5TdyFtEIAfdWuPYArd-48" value="&lt;font style=&quot;font-size: 14px&quot;&gt;2.共通モジュール(java maven)のサンプルCICD Pipelineの利用手順&lt;/font&gt;" style="text;html=1;strokeColor=none;fillColor=none;align=center;verticalAlign=middle;whiteSpace=wrap;rounded=0;fontSize=11;strokeWidth=2;" parent="1" vertex="1">
          <mxGeometry x="49" y="743" width="468" height="20" as="geometry" />
        </mxCell>
        <mxCell id="yr5TdyFtEIAfdWuPYArd-49" value="&lt;p style=&quot;margin: 0.0px 0.0px 0.0px 0.0px ; font: 12.0px &amp;#34;helvetica neue&amp;#34;&quot;&gt;手順：&lt;/p&gt;&lt;ol style=&quot;list-style-type: decimal&quot;&gt;&lt;li style=&quot;margin: 0.0px 0.0px 0.0px 0.0px ; font: 12.0px &amp;#34;helvetica neue&amp;#34;&quot;&gt;Nexus&lt;span style=&quot;font: 12.0px &amp;#34;hiragino sans&amp;#34;&quot;&gt;で共通モジュールの&lt;/span&gt;jar&lt;span style=&quot;font: 12.0px &amp;#34;hiragino sans&amp;#34;&quot;&gt;ファイル保存用の&lt;/span&gt;maven repository&lt;span style=&quot;font: 12.0px &amp;#34;hiragino sans&amp;#34;&quot;&gt;を作成する。&lt;/span&gt;&lt;/li&gt;&lt;br&gt;&lt;li style=&quot;margin: 0.0px 0.0px 0.0px 0.0px ; font: 12.0px &amp;#34;helvetica neue&amp;#34;&quot;&gt; git&amp;nbsp;&lt;span style=&quot;font: 12.0px &amp;#34;hiragino sans&amp;#34;&quot;&gt;&lt;span style=&quot;font-family: &amp;#34;helvetica neue&amp;#34;&quot;&gt;repository&lt;/span&gt;の命名ルールに従って&lt;/span&gt;IBM gitihub&lt;span style=&quot;font: 12.0px &amp;#34;hiragino sans&amp;#34;&quot;&gt;上に共通モジュール用のリポジトリを作成する。&lt;/span&gt;&lt;/li&gt;&lt;br&gt;&lt;li style=&quot;margin: 0.0px 0.0px 0.0px 0.0px ; font: 12.0px &amp;#34;helvetica neue&amp;#34;&quot;&gt;git&amp;nbsp;repositoryのルートディレクトリにsettings.xml&lt;span style=&quot;font: 12.0px &amp;#34;hiragino sans&amp;#34;&quot;&gt;や&lt;/span&gt;pom.xml&lt;span style=&quot;font: 12.0px &amp;#34;hiragino sans&amp;#34;&quot;&gt;を配置し、編集する。&lt;/span&gt;(settings.xml &lt;span style=&quot;font: 12.0px &amp;#34;hiragino sans&amp;#34;&quot;&gt;に&lt;/span&gt;Nexus&lt;span style=&quot;font: 12.0px &amp;#34;hiragino sans&amp;#34;&quot;&gt;への接続情報&lt;font color=&quot;#cc0000&quot;&gt;(環境変数名)&lt;/font&gt;、&lt;/span&gt;pom.xml &lt;span style=&quot;font: 12.0px &amp;#34;hiragino sans&amp;#34;&quot;&gt;に&lt;/span&gt;maven repository&lt;span style=&quot;font: 12.0px &amp;#34;hiragino sans&amp;#34;&quot;&gt;の情報を追記&lt;/span&gt;)&lt;/li&gt;&lt;br&gt;&lt;li style=&quot;margin: 0.0px 0.0px 0.0px 0.0px ; font: 12.0px &amp;#34;helvetica neue&amp;#34;&quot;&gt;ICCR&lt;span style=&quot;font: 12.0px &amp;#34;hiragino sans&amp;#34;&quot;&gt;に&lt;/span&gt;image repository&lt;span style=&quot;font: 12.0px &amp;#34;hiragino sans&amp;#34;&quot;&gt;を作成する。&lt;/span&gt;&lt;/li&gt;&lt;br&gt;&lt;li style=&quot;margin: 0.0px 0.0px 0.0px 0.0px ; font: 12.0px &amp;#34;helvetica neue&amp;#34;&quot;&gt;Git push&lt;span style=&quot;font: 12.0px &amp;#34;hiragino sans&amp;#34;&quot;&gt;で&lt;/span&gt;tekton&lt;span style=&quot;font: 12.0px &amp;#34;hiragino sans&amp;#34;&quot;&gt;を実行し、&lt;/span&gt;Pipeline&lt;span style=&quot;font: 12.0px &amp;#34;hiragino sans&amp;#34;&quot;&gt;を検証する。&lt;/span&gt;&lt;/li&gt;&lt;br&gt;&lt;/ol&gt;" style="rounded=0;whiteSpace=wrap;html=1;strokeWidth=2;fontSize=11;align=left;" parent="1" vertex="1">
          <mxGeometry x="56" y="780" width="577" height="240" as="geometry" />
        </mxCell>
      </root>
    </mxGraphModel>
  </diagram>
</mxfile>
